<?xml version="1.0" encoding="UTF-8"?><svg id="Vector" xmlns="http://www.w3.org/2000/svg" viewBox="0 0 720 720"><defs><style>.cls-1{fill:#fff;}.cls-2{fill:#231f20;}</style></defs><rect class="cls-2" width="720" height="720"/><g><path class="cls-1" d="m350.71,281.14c0-59.54-47.69-107.79-106.53-107.79-7.73,0-15.38.92-22.81,2.64l86.9,188.89c25.45-19.76,42.44-49.92,42.44-83.73Z"/><path class="cls-1" d="m392.4,343.86c-1.24-2.47-.25-5.47,2.22-6.71,2.46-1.24,5.47-.25,6.71,2.22l127.92,254.52h124.92L379.87,48.1l-51.22,95.85,12.34,1.76c2.73.39,4.63,2.92,4.24,5.66-3.35-.48-12.06-1.68-19.11-2.68l-.03.05-125.49-17.89,16.52,35.91c8.86-2.22,17.95-3.41,27.06-3.41,31.15,0,60.43,12.27,82.44,34.54,21.98,22.24,34.09,51.81,34.09,83.25,0,19.99-5.52,39.84-15.96,57.42-8.15,13.73-19.18,25.89-32.2,35.62l16.44,35.73,71.68,142.15h96.36l-104.64-208.2Z"/><path class="cls-1" d="m221.8,492.86c-1.12-2.52,0-5.48,2.53-6.6,2.52-1.12,5.48,0,6.6,2.53l60.86,136.43c.3.66.43,1.36.43,2.04h135.16l-128.87-255.57c30.78-19.2,52.2-52.58,52.2-90.55,0-59.54-47.69-107.79-106.53-107.79-40.89,0-79.24,25.64-97.1,59.85v354.28h116.93l-42.21-94.61Z"/></g></svg>